<?xml version="1.0" standalone="no"?>
<!DOCTYPE svg PUBLIC "-//W3C//DTD SVG 20010904//EN"
 "http://www.w3.org/TR/2001/REC-SVG-20010904/DTD/svg10.dtd">
<svg version="1.0" xmlns="http://www.w3.org/2000/svg"
 width="205.000000pt" height="199.000000pt" viewBox="0 0 205.000000 199.000000"
 preserveAspectRatio="xMidYMid meet">
<metadata>
Created by potrace 1.16, written by Peter Selinger 2001-2019
</metadata>
<g transform="translate(0.000000,199.000000) scale(0.100000,-0.100000)"
fill="#000000" stroke="none">
<path d="M888 1983 c6 -2 18 -2 25 0 6 3 1 5 -13 5 -14 0 -19 -2 -12 -5z"/>
<path d="M1138 1983 c6 -2 18 -2 25 0 6 3 1 5 -13 5 -14 0 -19 -2 -12 -5z"/>
<path d="M818 1973 c6 -2 18 -2 25 0 6 3 1 5 -13 5 -14 0 -19 -2 -12 -5z"/>
<path d="M1208 1973 c6 -2 18 -2 25 0 6 3 1 5 -13 5 -14 0 -19 -2 -12 -5z"/>
<path d="M778 1963 c7 -3 16 -2 19 1 4 3 -2 6 -13 5 -11 0 -14 -3 -6 -6z"/>
<path d="M1258 1963 c7 -3 16 -2 19 1 4 3 -2 6 -13 5 -11 0 -14 -3 -6 -6z"/>
<path d="M738 1953 c7 -3 16 -2 19 1 4 3 -2 6 -13 5 -11 0 -14 -3 -6 -6z"/>
<path d="M1298 1953 c7 -3 16 -2 19 1 4 3 -2 6 -13 5 -11 0 -14 -3 -6 -6z"/>
<path d="M538 1879 c-21 -11 -38 -22 -38 -24 0 -5 79 32 89 41 12 11 -18 1
-51 -17z"/>
<path d="M1461 1896 c10 -9 89 -46 89 -41 0 5 -75 45 -86 45 -4 0 -5 -2 -3 -4z"/>
<path d="M464 1834 c-18 -14 -18 -15 4 -4 12 6 22 13 22 15 0 8 -5 6 -26 -11z"/>
<path d="M1560 1846 c0 -3 9 -10 20 -16 11 -6 20 -8 20 -6 0 3 -9 10 -20 16
-11 6 -20 8 -20 6z"/>
<path d="M419 1803 c-13 -16 -12 -17 4 -4 9 7 17 15 17 17 0 8 -8 3 -21 -13z"/>
<path d="M1610 1816 c0 -2 8 -10 18 -17 15 -13 16 -12 3 4 -13 16 -21 21 -21
13z"/>
<path d="M306 1708 l-82 -83 80 75 c45 41 85 78 91 82 5 4 6 8 2 8 -5 0 -45
-37 -91 -82z"/>
<path d="M1655 1784 c6 -6 48 -46 95 -89 l85 -80 -65 68 c-36 38 -78 78 -95
89 -16 12 -25 17 -20 12z"/>
<path d="M199 1593 c-29 -35 -41 -53 -36 -53 2 0 17 16 31 35 28 36 31 49 5
18z"/>
<path d="M1854 1577 c16 -20 30 -37 33 -37 7 0 -36 58 -49 66 -7 4 1 -9 16
-29z"/>
<path d="M982 1528 c-7 -7 -12 -30 -12 -51 0 -36 -2 -39 -22 -33 -57 17 -94
18 -107 3 -19 -24 -10 -49 26 -72 18 -11 32 -23 33 -26 0 -4 -40 -32 -90 -64
-136 -87 -180 -147 -146 -200 20 -30 60 -33 94 -7 23 18 24 18 58 -16 39 -39
64 -37 104 8 23 26 27 27 44 14 27 -19 30 -18 70 16 l34 31 29 -58 c23 -46 34
-59 55 -61 18 -2 31 4 42 20 l16 22 16 -22 c19 -27 50 -28 64 -2 10 20 12 20
36 3 23 -16 25 -23 20 -71 -3 -30 -17 -92 -32 -138 -27 -82 -29 -85 -53 -79
-15 4 -29 10 -33 13 -4 4 0 49 9 99 9 51 14 96 10 99 -12 12 -27 -8 -28 -39 0
-18 -8 -57 -17 -87 -15 -45 -22 -56 -42 -58 -25 -3 -25 -3 -25 90 -1 107 -17
146 -72 172 -42 20 -76 20 -114 0 -44 -22 -59 -67 -59 -179 l0 -96 -27 3 c-27
3 -29 7 -47 103 -11 55 -21 102 -23 104 -2 3 -8 0 -14 -6 -7 -7 -6 -30 1 -74
25 -147 25 -141 -1 -137 -19 2 -27 15 -46 76 -13 40 -26 105 -29 143 -4 38
-11 69 -17 69 -14 0 0 -178 18 -230 24 -67 21 -75 -34 -89 -54 -14 -197 -79
-189 -86 2 -3 35 8 74 25 86 36 187 59 296 68 75 6 83 9 80 27 -1 11 -5 63 -9
115 -6 94 -5 96 22 129 26 30 32 33 69 28 28 -4 49 -15 65 -33 22 -27 23 -33
19 -141 l-4 -113 44 0 c58 0 190 -34 270 -71 35 -16 59 -23 53 -15 -6 7 -40
26 -76 42 -35 16 -65 34 -65 40 0 6 6 29 14 50 7 22 19 76 26 122 12 79 13 82
39 82 15 0 36 6 46 14 17 12 18 17 6 42 -33 73 -116 166 -211 238 -54 40 -104
76 -111 79 -11 5 -11 8 2 19 9 7 21 24 28 37 11 19 10 26 -3 39 -14 14 -19 14
-52 -2 -39 -18 -53 -11 -54 24 0 21 -28 60 -44 60 -6 0 -17 -5 -24 -12z m58
-77 c1 -39 16 -45 54 -22 47 29 69 23 35 -10 -14 -13 -34 -29 -44 -35 -17 -9
-11 -16 51 -59 170 -120 266 -218 288 -291 13 -42 -22 -35 -83 16 -54 45 -60
48 -63 28 -5 -33 -26 -33 -45 1 -19 33 -33 40 -33 18 0 -8 -9 -22 -21 -33 -21
-19 -21 -18 -45 9 -13 15 -29 45 -35 67 -7 22 -17 40 -23 40 -6 0 -24 -13 -39
-30 -36 -37 -62 -38 -81 -3 l-14 27 -15 -37 c-19 -45 -55 -64 -86 -48 -13 7
-21 21 -21 36 0 14 -3 25 -6 25 -3 0 -24 -16 -47 -35 -59 -51 -107 -44 -87 11
12 32 110 114 200 168 44 26 80 51 80 55 0 5 -13 14 -29 21 -40 16 -68 47 -54
61 12 12 80 2 89 -12 3 -5 12 -9 20 -9 12 0 13 8 8 35 -3 19 -3 43 1 52 6 16
8 16 26 -6 10 -13 19 -31 19 -40z"/>
<path d="M140 1510 c-6 -11 -8 -20 -6 -20 3 0 10 9 16 20 6 11 8 20 6 20 -3 0
-10 -9 -16 -20z"/>
<path d="M1900 1510 c6 -11 13 -20 16 -20 2 0 0 9 -6 20 -6 11 -13 20 -16 20
-2 0 0 -9 6 -20z"/>
<path d="M94 1429 c-14 -28 -24 -53 -22 -55 2 -2 16 21 31 51 15 30 25 55 22
55 -3 0 -16 -23 -31 -51z"/>
<path d="M1947 1425 c15 -30 29 -53 31 -51 4 5 -46 106 -53 106 -3 0 7 -25 22
-55z"/>
<path d="M56 1345 c-9 -26 -7 -32 5 -12 6 10 9 21 6 23 -2 3 -7 -2 -11 -11z"/>
<path d="M1980 1355 c0 -5 5 -17 10 -25 5 -8 10 -10 10 -5 0 6 -5 17 -10 25
-5 8 -10 11 -10 5z"/>
<path d="M334 1301 c-91 -55 -138 -252 -116 -484 14 -135 29 -170 76 -175 17
-2 36 4 48 14 17 16 19 26 13 79 -4 33 -9 68 -11 77 -4 13 7 20 47 32 29 9 58
16 65 16 7 0 19 -21 28 -47 9 -25 23 -55 33 -65 34 -38 103 -11 103 40 0 27
-123 380 -155 441 -40 80 -81 102 -131 72z m66 -247 c12 -36 20 -67 19 -69 -2
-1 -21 -8 -41 -13 -37 -10 -38 -10 -38 18 0 39 22 130 31 130 4 0 17 -30 29
-66z"/>
<path d="M1601 1276 c-12 -13 -31 -47 -43 -77 -26 -68 -128 -418 -128 -440 0
-47 86 -67 114 -27 9 12 16 28 16 36 0 7 6 28 14 47 14 32 16 33 48 25 18 -4
46 -11 61 -14 l28 -7 -7 -74 c-6 -65 -4 -78 11 -95 24 -27 61 -25 90 5 22 22
25 33 27 112 2 138 -2 222 -17 296 -37 183 -143 288 -214 213z m97 -278 l4
-47 -38 11 c-22 5 -40 11 -42 13 -1 1 7 33 19 71 l22 69 15 -35 c8 -19 17 -56
20 -82z"/>
<path d="M21 1224 c0 -11 3 -14 6 -6 3 7 2 16 -1 19 -3 4 -6 -2 -5 -13z"/>
<path d="M2021 1224 c0 -11 3 -14 6 -6 3 7 2 16 -1 19 -3 4 -6 -2 -5 -13z"/>
<path d="M12 1180 c0 -14 2 -19 5 -12 2 6 2 18 0 25 -3 6 -5 1 -5 -13z"/>
<path d="M2032 1180 c0 -14 2 -19 5 -12 2 6 2 18 0 25 -3 6 -5 1 -5 -13z"/>
<path d="M2 1115 c0 -16 2 -22 5 -12 2 9 2 23 0 30 -3 6 -5 -1 -5 -18z"/>
<path d="M2042 1115 c0 -16 2 -22 5 -12 2 9 2 23 0 30 -3 6 -5 -1 -5 -18z"/>
<path d="M2 875 c0 -16 2 -22 5 -12 2 9 2 23 0 30 -3 6 -5 -1 -5 -18z"/>
<path d="M2042 875 c0 -16 2 -22 5 -12 2 9 2 23 0 30 -3 6 -5 -1 -5 -18z"/>
<path d="M12 810 c0 -14 2 -19 5 -12 2 6 2 18 0 25 -3 6 -5 1 -5 -13z"/>
<path d="M2032 810 c0 -14 2 -19 5 -12 2 6 2 18 0 25 -3 6 -5 1 -5 -13z"/>
<path d="M21 764 c0 -11 3 -14 6 -6 3 7 2 16 -1 19 -3 4 -6 -2 -5 -13z"/>
<path d="M2021 764 c0 -11 3 -14 6 -6 3 7 2 16 -1 19 -3 4 -6 -2 -5 -13z"/>
<path d="M50 665 c0 -5 5 -17 10 -25 5 -8 10 -10 10 -5 0 6 -5 17 -10 25 -5 8
-10 11 -10 5z"/>
<path d="M1986 655 c-9 -26 -7 -32 5 -12 6 10 9 21 6 23 -2 3 -7 -2 -11 -11z"/>
<path d="M70 616 c0 -11 50 -106 55 -106 3 0 -7 24 -21 53 -28 55 -34 65 -34
53z"/>
<path d="M1947 565 c-15 -30 -25 -55 -22 -55 7 0 57 101 53 106 -2 2 -16 -21
-31 -51z"/>
<path d="M140 480 c6 -11 13 -20 16 -20 2 0 0 9 -6 20 -6 11 -13 20 -16 20 -2
0 0 -9 6 -20z"/>
<path d="M1900 480 c-6 -11 -8 -20 -6 -20 3 0 10 9 16 20 6 11 8 20 6 20 -3 0
-10 -9 -16 -20z"/>
<path d="M180 420 c11 -16 26 -33 32 -36 7 -4 -1 9 -16 29 -34 44 -46 50 -16
7z"/>
<path d="M1854 413 c-15 -20 -23 -33 -16 -29 13 8 56 66 49 66 -3 0 -17 -17
-33 -37z"/>
<path d="M280 307 c36 -38 79 -78 95 -89 17 -12 26 -17 20 -12 -5 6 -48 46
-95 89 l-85 80 65 -68z"/>
<path d="M1735 282 c-49 -47 -76 -77 -60 -65 30 21 164 153 155 153 -3 -1 -45
-40 -95 -88z"/>
<path d="M410 196 c0 -2 8 -10 18 -17 15 -13 16 -12 3 4 -13 16 -21 21 -21 13z"/>
<path d="M1619 183 c-13 -16 -12 -17 4 -4 16 13 21 21 13 21 -2 0 -10 -8 -17
-17z"/>
<path d="M450 166 c0 -3 9 -10 20 -16 11 -6 20 -8 20 -6 0 3 -9 10 -20 16 -11
6 -20 8 -20 6z"/>
<path d="M1574 154 c-18 -14 -18 -15 4 -4 12 6 22 13 22 15 0 8 -5 6 -26 -11z"/>
<path d="M500 135 c0 -7 81 -47 86 -43 2 3 -17 14 -41 26 -25 12 -45 20 -45
17z"/>
<path d="M1500 115 c-25 -13 -41 -24 -37 -25 11 0 87 39 87 45 0 7 0 7 -50
-20z"/>
<path d="M738 33 c7 -3 16 -2 19 1 4 3 -2 6 -13 5 -11 0 -14 -3 -6 -6z"/>
<path d="M1298 33 c7 -3 16 -2 19 1 4 3 -2 6 -13 5 -11 0 -14 -3 -6 -6z"/>
<path d="M778 23 c7 -3 16 -2 19 1 4 3 -2 6 -13 5 -11 0 -14 -3 -6 -6z"/>
<path d="M1258 23 c7 -3 16 -2 19 1 4 3 -2 6 -13 5 -11 0 -14 -3 -6 -6z"/>
<path d="M818 13 c6 -2 18 -2 25 0 6 3 1 5 -13 5 -14 0 -19 -2 -12 -5z"/>
<path d="M1208 13 c6 -2 18 -2 25 0 6 3 1 5 -13 5 -14 0 -19 -2 -12 -5z"/>
<path d="M888 3 c6 -2 18 -2 25 0 6 3 1 5 -13 5 -14 0 -19 -2 -12 -5z"/>
<path d="M1138 3 c6 -2 18 -2 25 0 6 3 1 5 -13 5 -14 0 -19 -2 -12 -5z"/>
</g>
</svg>
